<svg width="22" height="22" viewBox="0 0 22 22" fill="none" xmlns="http://www.w3.org/2000/svg">
<path d="M21.0827 7.33333V8.25H20.166V9.16667H19.2493V10.0833H18.3327V11H17.416V11.9167H16.4993V12.8333H15.5827V13.75H14.666V14.6667H13.7493V15.5833H12.8327V16.5H11.916V17.4167H10.0827V16.5H9.16602V15.5833H8.24935V14.6667H7.33268V13.75H6.41602V12.8333H5.49935V11.9167H4.58268V11H3.66602V10.0833H2.74935V9.16667H1.83268V8.25H0.916016V7.33333H1.83268V6.41667H2.74935V5.5H3.66602V6.41667H4.58268V7.33333H5.49935V8.25H6.41602V9.16667H7.33268V10.0833H8.24935V11H9.16602V11.9167H10.0827V12.8333H11.916V11.9167H12.8327V11H13.7493V10.0833H14.666V9.16667H15.5827V8.25H16.4993V7.33333H17.416V6.41667H18.3327V5.5H19.2493V6.41667H20.166V7.33333H21.0827Z" fill="black"/>
</svg>
