<svg width="25" height="25" viewBox="0 0 25 25" fill="none" xmlns="http://www.w3.org/2000/svg">
<path d="M13.541 23.9587H11.4577V22.917H10.416V21.8753H9.37435V20.8337H8.33268V19.792H7.29102V18.7503H6.24935V17.7087H5.20768V16.667H4.16602V15.6253H3.12435V14.5837H2.08268V13.542H1.04102V12.5003H2.08268V11.4587H3.12435V10.417H4.16602V11.4587H5.20768V12.5003H6.24935V13.542H7.29102V14.5837H8.33268V15.6253H9.37435V16.667H10.416V1.04199H14.5827V16.667H15.6243V15.6253H16.666V14.5837H17.7077V13.542H18.7493V12.5003H19.791V11.4587H20.8327V10.417H21.8743V11.4587H22.916V12.5003H23.9577V13.542H22.916V14.5837H21.8743V15.6253H20.8327V16.667H19.791V17.7087H18.7493V18.7503H17.7077V19.792H16.666V20.8337H15.6243V21.8753H14.5827V22.917H13.541V23.9587Z" fill="black"/>
</svg>
